<?xml version="1.0" encoding="utf-8"?>
<!-- Generator: Adobe Illustrator 16.0.0, SVG Export Plug-In . SVG Version: 6.00 Build 0)  -->
<!DOCTYPE svg PUBLIC "-//W3C//DTD SVG 1.1//EN" "http://www.w3.org/Graphics/SVG/1.1/DTD/svg11.dtd">
<svg version="1.1" id="el_x5F_food_x5F_2" xmlns="http://www.w3.org/2000/svg" xmlns:xlink="http://www.w3.org/1999/xlink" x="0px"
	 y="0px" width="40px" height="40px" viewBox="0 0 40 40" enable-background="new 0 0 40 40" xml:space="preserve">
<path fill="#FFFFFF" d="M31.98,20.668c0.229,0.696,0.354,1.439,0.354,2.21v0.001c0,3.906-3.198,7.105-7.106,7.105H13.216
	c-3.818,0-6.958-3.055-7.101-6.838c1.068,0.358,2.489,0.569,4.421,0.545c5.111-0.065,10.901-5.193,17.61-7.226
	c0.211,0.228,0.428,0.486,0.646,0.784C29.948,18.834,31.029,19.942,31.98,20.668L31.98,20.668z M30.954,12.01
	c-1.567-0.56-3.213-0.867-4.892-1.253c-2.957-0.68-0.467,5.111-1.555,4.861c-1.072-0.247,0.739-5.302-2.387-5.688
	c-3.887-0.479,0.622,7.225-0.9,7.202c-1.386-0.021-0.23-7.55-3.75-7.297c-3.943,0.282,1.7,8.626,0.118,8.859
	c-1.472,0.217-0.826-9.029-4.603-8.208c-3.913,0.852,2.552,9.566,1.002,10.019c-1.695,0.497-1.376-10.333-5.669-8.603
	c-4.118,1.66,3.114,8.573,1.601,9.454c-1.425,0.83-2.787-9.361-5.672-7.083c-1.404,1.108-2.577,2.302-2.092,3.323
	c0.973,2.048,1.433,4.892,8.257,4.802c5.239-0.067,11.192-5.451,18.114-7.368c0.146,0.17,0.295,0.354,0.443,0.557
	c5.526,7.562,9.348,4.359,5.338-0.234C40.328,18.606,38.484,13.844,30.954,12.01z"/>
</svg>
