<?xml version="1.0" encoding="utf-8"?>
<!-- Generator: Adobe Illustrator 16.0.0, SVG Export Plug-In . SVG Version: 6.00 Build 0)  -->
<!DOCTYPE svg PUBLIC "-//W3C//DTD SVG 1.1//EN" "http://www.w3.org/Graphics/SVG/1.1/DTD/svg11.dtd">
<svg version="1.1" id="Layer_1" xmlns="http://www.w3.org/2000/svg" xmlns:xlink="http://www.w3.org/1999/xlink" x="0px" y="0px"
	 width="256px" height="256px" viewBox="9 0 256 256" enable-background="new 9 0 256 256" xml:space="preserve">
<path fill="#FFFFFF" d="M220.212,127.891c0-6.032-2.111-11.159-6.334-15.382c-4.223-4.223-9.351-6.334-15.382-6.334h-7.24v43.434
	h7.24c6.031,0,11.159-2.111,15.382-6.335C218.101,139.051,220.212,133.924,220.212,127.891L220.212,127.891z M32,214.758h202.69
	c0,7.994-2.828,14.818-8.483,20.474s-12.479,8.482-20.472,8.482H60.957c-7.994,0-14.818-2.827-20.473-8.482
	S32.001,222.752,32,214.758L32,214.758z M241.929,131.891c0,11.989-4.242,22.227-12.726,30.709
	c-8.482,8.483-18.719,12.726-30.708,12.726h-7.239v3.619c0,6.938-2.488,12.896-7.466,17.872c-4.977,4.978-10.935,7.466-17.872,7.465
	H86.29c-6.938,0-12.895-2.488-17.872-7.465s-7.465-10.934-7.465-17.872V95.697c0-1.96,0.716-3.657,2.149-5.089
	c1.433-1.433,3.129-2.149,5.089-2.149h130.3c11.989,0,22.227,4.242,30.71,12.725c8.483,8.484,12.725,18.72,12.725,30.709
	L241.929,131.891z"/>
<path fill="#FFFFFF" d="M96.167,11.5c0,0-7,9.333-2.667,15s9.333,11,9,14.667S88.83,54.684,90.213,63.5
	c1.621,10.333,9.954,18.333,9.954,18.333s-23-11-23-22.667s12.667-14.667,12-19.667s-10.333-13-9-16.667S96.167,11.5,96.167,11.5z"
	/>
<path fill="#FFFFFF" d="M134.5,11.5c0,0-7,9.333-2.667,15c4.334,5.667,9.333,11,9,14.667s-13.67,13.517-12.287,22.333
	c1.621,10.333,9.954,18.333,9.954,18.333s-23-11-23-22.667s12.667-14.667,12-19.667s-10.333-13-9-16.667S134.5,11.5,134.5,11.5z"/>
<path fill="#FFFFFF" d="M172.501,11.5c0,0-7,9.333-2.667,15c4.334,5.667,9.333,11,9,14.667s-13.67,13.517-12.287,22.333
	c1.621,10.333,9.954,18.333,9.954,18.333s-23-11-23-22.667s12.667-14.667,12-19.667s-10.333-13-9-16.667S172.501,11.5,172.501,11.5z
	"/>
</svg>
