<?xml version="1.0" encoding="utf-8"?>
<!-- Generator: Adobe Illustrator 16.0.0, SVG Export Plug-In . SVG Version: 6.00 Build 0)  -->
<!DOCTYPE svg PUBLIC "-//W3C//DTD SVG 1.1//EN" "http://www.w3.org/Graphics/SVG/1.1/DTD/svg11.dtd">
<svg version="1.1" id="Layer_1" xmlns="http://www.w3.org/2000/svg" xmlns:xlink="http://www.w3.org/1999/xlink" x="0px" y="0px"
	 width="400px" height="400px" viewBox="0 0 400 400" enable-background="new 0 0 400 400" xml:space="preserve">
<g>
	<path fill="#FFFFFF" d="M350.226,53.879c-97.346-48.421-206.372-48.421-303.723,0c-7.731,3.826-11.492,13.692-8.533,21.571
		c2.398,6.471,4.778,12.924,7.179,19.395c1.981,5.286,6.195,8.241,10.782,8.699c0.339,1.333,0.764,2.667,1.386,3.979
		l126.798,267.124c4.262,8.966,11.026,9.938,13.731,9.938c2.698,0,9.463-0.975,13.734-9.938l126.784-267.124
		c0.631-1.313,1.056-2.646,1.38-3.979c5.004-0.071,9.702-3.003,11.843-8.699c2.401-6.471,4.788-12.923,7.188-19.395
		C361.718,67.573,357.963,57.707,350.226,53.879z M98.69,87.599c6.354-2.241,12.751-4.271,19.175-6.087
		c19.15-4.964,45.215-8.917,79.978-8.917c75.153,0,113.864,21.742,123.258,27.875L197.816,360.101L74.487,100.165
		C77.671,97.741,85.336,92.709,98.69,87.599z"/>
	<path fill="#FFFFFF" d="M198.535,135.062c0,23.585-19.123,42.735-42.735,42.735c-23.583,0-42.732-19.15-42.732-42.735
		c0-23.613,19.149-42.736,42.732-42.736C179.411,92.326,198.535,111.448,198.535,135.062z"/>
	<path fill="#FFFFFF" d="M255.865,118.622c0,12.12-9.82,21.939-21.943,21.939c-12.12,0-21.96-9.82-21.96-21.939
		s9.84-21.949,21.96-21.949C246.045,96.673,255.865,106.502,255.865,118.622z"/>
	<path fill="#FFFFFF" d="M238.532,233.812c0,17.965-14.568,32.501-32.532,32.501c-17.961,0-32.529-14.539-32.529-32.501
		c0-17.981,14.568-32.55,32.529-32.55C223.964,201.262,238.532,215.83,238.532,233.812z"/>
</g>
</svg>
